<svg width="30" height="10" viewBox="0 0 30 10" fill="none" xmlns="http://www.w3.org/2000/svg">
<path d="M0.256 6.324V5.316H3.916V6.324H0.256ZM10.3728 8.988L4.51684 9V8.1L7.31284 5.688C8.71684 4.476 9.11284 3.888 9.11284 2.964C9.11284 1.872 8.48884 1.224 7.44484 1.224C6.37684 1.224 5.68084 2.004 5.65684 3.24H4.48084C4.51684 1.38 5.69284 0.167999 7.45684 0.167999C9.19684 0.167999 10.3128 1.224 10.3128 2.892C10.3128 4.128 9.70084 5.004 8.16484 6.336L6.36484 7.896H10.3728V8.988ZM11.4552 4.668C11.4552 1.98 12.8472 0.155999 15.0312 0.155999C17.2032 0.155999 18.5952 1.98 18.5952 4.668C18.5952 7.368 17.2632 9.156 15.0312 9.156C12.7872 9.156 11.4552 7.368 11.4552 4.668ZM12.6192 4.668C12.6192 6.804 13.5072 8.1 15.0312 8.1C16.5552 8.1 17.4312 6.804 17.4312 4.668C17.4312 2.508 16.5552 1.212 15.0312 1.212C13.5072 1.212 12.6192 2.508 12.6192 4.668ZM24.0715 2.376C24.0715 3.66 23.1595 4.584 21.8755 4.584C20.6035 4.584 19.6915 3.66 19.6915 2.376C19.6915 1.08 20.6035 0.155999 21.8755 0.155999C23.1595 0.155999 24.0715 1.08 24.0715 2.376ZM28.6435 0.335999L22.0555 9H20.9035L27.4915 0.335999H28.6435ZM23.1475 2.376C23.1475 1.596 22.6315 1.056 21.8755 1.056C21.1315 1.056 20.6155 1.596 20.6155 2.376C20.6155 3.144 21.1315 3.684 21.8755 3.684C22.6195 3.684 23.1475 3.144 23.1475 2.376ZM29.8795 6.948C29.8795 8.232 28.9555 9.156 27.6835 9.156C26.4115 9.156 25.4875 8.232 25.4875 6.948C25.4875 5.652 26.4115 4.74 27.6835 4.74C28.9555 4.74 29.8795 5.652 29.8795 6.948ZM28.9435 6.948C28.9435 6.168 28.4395 5.628 27.6835 5.628C26.9395 5.628 26.4235 6.168 26.4235 6.948C26.4235 7.716 26.9395 8.256 27.6835 8.256C28.4275 8.256 28.9435 7.716 28.9435 6.948Z" fill="#FF3333"/>
</svg>
